<svg xmlns="http://www.w3.org/2000/svg" xmlns:xlink="http://www.w3.org/1999/xlink" fill="none" version="1.1" width="300" height="300" viewBox="0 0 300 300"><defs><clipPath id="master_svg0_2_0"><rect x="0" y="0" width="300" height="300" rx="0"/></clipPath></defs><g clip-path="url(#master_svg0_2_0)"><rect x="0" y="0" width="300" height="300" rx="0" fill="#FFFFFF" fill-opacity="1"/><g><g><rect x="11" y="11" width="278" height="278" rx="0" fill-opacity="0" stroke-opacity="1" stroke="#3D3D3D" fill="none" stroke-width="2"/></g><g transform="matrix(1,1.6456547236032293e-10,-1.6456547236032293e-10,1,1.3165237788825834e-8,-1.6456596085845376e-9)"><path d="M290,81L10,81L10,79L290,79L290,81Z" fill-rule="evenodd" fill="#3D3D3D" fill-opacity="1"/></g><g transform="matrix(0,1,-1,0,160.00100708007812,-140.00100708007812)"><path d="M430.0010070800781,11L150.00100708007812,11L150.00100708007812,9L430.0010070800781,9L430.0010070800781,11Z" fill-rule="evenodd" fill="#3D3D3D" fill-opacity="1"/></g><g transform="matrix(1,1.6456547236032293e-10,-1.6456547236032293e-10,1,2.468482129813765e-8,-1.6456453977298224e-9)"><path d="M290,151L10,151L10,149L290,149L290,151Z" fill-rule="evenodd" fill="#3D3D3D" fill-opacity="1"/></g><g transform="matrix(1,1.6456547236032293e-10,-1.6456547236032293e-10,1,3.6204404807449464e-8,-1.6456453977298224e-9)"><path d="M290,221L10,221L10,219L290,219L290,221Z" fill-rule="evenodd" fill="#3D3D3D" fill-opacity="1"/></g><g transform="matrix(0,1,-1,0,90.00100708007812,-70.00100708007812)"><path d="M360.0010070800781,11L80.00100708007812,11L80.00100708007812,9L360.0010070800781,9L360.0010070800781,11Z" fill-rule="evenodd" fill="#3D3D3D" fill-opacity="1"/></g><g transform="matrix(0,1,-1,0,230.00100708007812,-210.00100708007812)"><path d="M500.0010070800781,11L220.00100708007812,11L220.00100708007812,9L500.0010070800781,9L500.0010070800781,11Z" fill-rule="evenodd" fill="#3D3D3D" fill-opacity="1"/></g><g><path d="M39.968,57L50.647999999999996,57L50.647999999999996,54.120000000000005L47.312,54.120000000000005L47.312,39.216L44.696,39.216C43.568,39.936,42.368,40.391999999999996,40.568,40.704L40.568,42.912L43.808,42.912L43.808,54.120000000000005L39.968,54.120000000000005L39.968,57Z" fill="#3D3D3D" fill-opacity="1"/></g><g><path d="M109.032,57L120.936,57L120.936,54.024L117.096,54.024C116.256,54.024,115.08,54.120000000000005,114.168,54.239999999999995C117.408,51.048,120.096,47.592,120.096,44.376C120.096,41.064,117.864,38.903999999999996,114.504,38.903999999999996C112.08,38.903999999999996,110.496,39.84,108.84,41.616L110.80799999999999,43.512C111.696,42.528,112.752,41.688,114.048,41.688C115.752,41.688,116.712,42.792,116.712,44.544C116.712,47.304,113.88,50.64,109.032,54.96L109.032,57Z" fill="#3D3D3D" fill-opacity="1"/></g><g><path d="M184.552,57.336C187.96,57.336,190.816,55.464,190.816,52.2C190.816,49.848,189.28,48.36,187.288,47.808L187.288,47.688C189.16,46.944,190.24,45.552,190.24,43.632C190.24,40.584,187.912,38.903999999999996,184.48,38.903999999999996C182.392,38.903999999999996,180.688,39.744,179.152,41.064L180.976,43.248C182.008,42.263999999999996,183.04,41.688,184.312,41.688C185.824,41.688,186.688,42.504,186.688,43.896C186.688,45.504000000000005,185.632,46.608000000000004,182.392,46.608000000000004L182.392,49.152C186.232,49.152,187.264,50.232,187.264,51.984C187.264,53.568,186.04,54.456,184.24,54.456C182.608,54.456,181.336,53.664,180.28,52.632000000000005L178.624,54.864000000000004C179.872,56.28,181.768,57.336,184.552,57.336Z" fill="#3D3D3D" fill-opacity="1"/></g><g><path d="M184.552,57.336C187.96,57.336,190.816,55.464,190.816,52.2C190.816,49.848,189.28,48.36,187.288,47.808L187.288,47.688C189.16,46.944,190.24,45.552,190.24,43.632C190.24,40.584,187.912,38.903999999999996,184.48,38.903999999999996C182.392,38.903999999999996,180.688,39.744,179.152,41.064L180.976,43.248C182.008,42.263999999999996,183.04,41.688,184.312,41.688C185.824,41.688,186.688,42.504,186.688,43.896C186.688,45.504000000000005,185.632,46.608000000000004,182.392,46.608000000000004L182.392,49.152C186.232,49.152,187.264,50.232,187.264,51.984C187.264,53.568,186.04,54.456,184.24,54.456C182.608,54.456,181.336,53.664,180.28,52.632000000000005L178.624,54.864000000000004C179.872,56.28,181.768,57.336,184.552,57.336Z" fill="#3D3D3D" fill-opacity="1"/></g><g><path d="M255.088,57L258.376,57L258.376,52.391999999999996L260.488,52.391999999999996L260.488,49.704L258.376,49.704L258.376,39.216L254.128,39.216L247.504,49.992000000000004L247.504,52.391999999999996L255.088,52.391999999999996L255.088,57ZM255.088,49.704L250.936,49.704L253.696,45.288C254.2,44.328,254.68,43.344,255.112,42.384L255.232,42.384C255.16,43.44,255.088,45.048,255.088,46.08L255.088,49.704Z" fill="#3D3D3D" fill-opacity="1"/></g><g><path d="M254.08,126.336C257.656,126.336,260.056,124.27199999999999,260.056,121.584C260.056,119.16,258.712,117.72,257.056,116.832L257.056,116.712C258.208,115.872,259.336,114.408,259.336,112.656C259.336,109.824,257.32,107.928,254.176,107.928C251.08,107.928,248.824,109.752,248.824,112.632C248.824,114.504,249.808,115.848,251.176,116.832L251.176,116.952C249.52,117.816,248.128,119.304,248.128,121.584C248.128,124.368,250.648,126.336,254.08,126.336ZM255.184,115.848C253.336,115.104,251.944,114.288,251.944,112.632C251.944,111.19200000000001,252.904,110.4,254.104,110.4C255.592,110.4,256.456,111.432,256.456,112.872C256.456,113.928,256.048,114.96000000000001,255.184,115.848ZM254.152,123.84C252.496,123.84,251.176,122.80799999999999,251.176,121.2C251.176,119.856,251.848,118.68,252.808,117.888C255.112,118.872,256.76800000000003,119.616,256.76800000000003,121.464C256.76800000000003,123,255.664,123.84,254.152,123.84Z" fill="#3D3D3D" fill-opacity="1"/></g><g><path d="M182.464,126L186.016,126C186.328,119.064,186.88,115.416,191.008,110.376L191.008,108.216L179.2,108.216L179.2,111.19200000000001L187.192,111.19200000000001C183.808,115.896,182.776,119.832,182.464,126Z" fill="#3D3D3D" fill-opacity="1"/></g><g><path d="M115.584,126.336C118.608,126.336,121.152,124.032,121.152,120.384C121.152,116.592,119.016,114.816,116.03999999999999,114.816C114.912,114.816,113.4,115.488,112.416,116.688C112.584,112.272,114.24,110.736,116.304,110.736C117.312,110.736,118.392,111.336,119.016,112.032L120.888,109.92C119.832,108.816,118.248,107.904,116.064,107.904C112.488,107.904,109.2,110.736,109.2,117.36C109.2,123.6,112.224,126.336,115.584,126.336ZM112.488,119.184C113.376,117.84,114.456,117.312,115.392,117.312C116.928,117.312,117.936,118.27199999999999,117.936,120.384C117.936,122.544,116.856,123.672,115.512,123.672C114.024,123.672,112.824,122.424,112.488,119.184Z" fill="#3D3D3D" fill-opacity="1"/></g><g><path d="M44.647999999999996,126.336C47.888,126.336,50.84,124.056,50.84,120.096C50.84,116.232,48.368,114.48,45.368,114.48C44.552,114.48,43.928,114.624,43.232,114.96000000000001L43.568,111.19200000000001L50.024,111.19200000000001L50.024,108.216L40.52,108.216L40.04,116.856L41.648,117.888C42.704,117.21600000000001,43.28,116.976,44.312,116.976C46.088,116.976,47.312,118.128,47.312,120.19200000000001C47.312,122.28,46.016,123.456,44.168,123.456C42.536,123.456,41.264,122.64,40.256,121.656L38.624,123.912C39.968,125.232,41.816,126.336,44.647999999999996,126.336Z" fill="#3D3D3D" fill-opacity="1"/></g><g><path d="M102.968,197L113.648,197L113.648,194.12L110.312,194.12L110.312,179.216L107.696,179.216C106.568,179.936,105.368,180.392,103.568,180.704L103.568,182.912L106.80799999999999,182.912L106.80799999999999,194.12L102.968,194.12L102.968,197ZM122.24,197.336C125.864,197.336,128.264,194.168,128.264,188.024C128.264,181.928,125.864,178.904,122.24,178.904C118.616,178.904,116.216,181.904,116.216,188.024C116.216,194.168,118.616,197.336,122.24,197.336ZM122.24,194.576C120.70400000000001,194.576,119.55199999999999,193.04,119.55199999999999,188.024C119.55199999999999,183.08,120.70400000000001,181.61599999999999,122.24,181.61599999999999C123.776,181.61599999999999,124.904,183.08,124.904,188.024C124.904,193.04,123.776,194.576,122.24,194.576Z" fill="#3D3D3D" fill-opacity="1"/></g><g><path d="M44.12,197.336C47.647999999999996,197.336,50.936,194.432,50.936,187.712C50.936,181.544,47.936,178.904,44.552,178.904C41.504,178.904,38.96,181.184,38.96,184.832C38.96,188.6,41.072,190.424,44.048,190.424C45.248,190.424,46.76,189.704,47.696,188.504C47.528,192.944,45.896,194.456,43.928,194.456C42.872,194.456,41.768,193.904,41.12,193.184L39.248,195.32C40.304,196.4,41.912,197.336,44.12,197.336ZM47.647999999999996,185.984C46.784,187.376,45.68,187.904,44.72,187.904C43.184,187.904,42.2,186.92000000000002,42.2,184.832C42.2,182.648,43.28,181.568,44.6,181.568C46.112,181.568,47.336,182.768,47.647999999999996,185.984Z" fill="#3D3D3D" fill-opacity="1"/></g><g><path d="M172.968,197L183.648,197L183.648,194.12L180.312,194.12L180.312,179.216L177.696,179.216C176.568,179.936,175.368,180.392,173.568,180.704L173.568,182.912L176.808,182.912L176.808,194.12L172.968,194.12L172.968,197ZM187.128,197L197.808,197L197.808,194.12L194.472,194.12L194.472,179.216L191.856,179.216C190.728,179.936,189.528,180.392,187.728,180.704L187.728,182.912L190.968,182.912L190.968,194.12L187.128,194.12L187.128,197Z" fill="#3D3D3D" fill-opacity="1"/></g><g><path d="M241.968,197L252.648,197L252.648,194.12L249.312,194.12L249.312,179.216L246.696,179.216C245.568,179.936,244.368,180.392,242.568,180.704L242.568,182.912L245.808,182.912L245.808,194.12L241.968,194.12L241.968,197ZM255.192,197L267.096,197L267.096,194.024L263.256,194.024C262.416,194.024,261.24,194.12,260.328,194.24C263.568,191.048,266.256,187.59199999999998,266.256,184.376C266.256,181.064,264.024,178.904,260.664,178.904C258.24,178.904,256.656,179.84,255,181.61599999999999L256.968,183.512C257.856,182.528,258.912,181.688,260.20799999999997,181.688C261.912,181.688,262.872,182.792,262.872,184.544C262.872,187.304,260.04,190.64,255.192,194.96L255.192,197Z" fill="#3D3D3D" fill-opacity="1"/></g><g><path d="M102.968,265L113.648,265L113.648,262.12L110.312,262.12L110.312,247.216L107.696,247.216C106.568,247.936,105.368,248.392,103.568,248.704L103.568,250.912L106.80799999999999,250.912L106.80799999999999,262.12L102.968,262.12L102.968,265ZM123.248,265L126.536,265L126.536,260.392L128.648,260.392L128.648,257.704L126.536,257.704L126.536,247.216L122.288,247.216L115.664,257.992L115.664,260.392L123.248,260.392L123.248,265ZM123.248,257.704L119.096,257.704L121.856,253.288C122.36,252.328,122.84,251.344,123.27199999999999,250.38400000000001L123.392,250.38400000000001C123.32,251.44,123.248,253.048,123.248,254.07999999999998L123.248,257.704Z" fill="#3D3D3D" fill-opacity="1"/></g><g><path d="M172.968,265L183.648,265L183.648,262.12L180.312,262.12L180.312,247.216L177.696,247.216C176.568,247.936,175.368,248.392,173.568,248.704L173.568,250.912L176.808,250.912L176.808,262.12L172.968,262.12L172.968,265ZM191.808,265.336C195.048,265.336,198,263.056,198,259.096C198,255.232,195.528,253.48,192.528,253.48C191.712,253.48,191.088,253.624,190.392,253.96L190.728,250.192L197.184,250.192L197.184,247.216L187.68,247.216L187.2,255.856L188.808,256.888C189.864,256.216,190.44,255.976,191.472,255.976C193.248,255.976,194.472,257.128,194.472,259.192C194.472,261.28,193.176,262.456,191.328,262.456C189.696,262.456,188.424,261.64,187.416,260.656L185.784,262.912C187.128,264.23199999999997,188.976,265.336,191.808,265.336Z" fill="#3D3D3D" fill-opacity="1"/></g><g><path d="M32.968,265L43.647999999999996,265L43.647999999999996,262.12L40.312,262.12L40.312,247.216L37.696,247.216C36.568,247.936,35.368,248.392,33.568,248.704L33.568,250.912L36.808,250.912L36.808,262.12L32.968,262.12L32.968,265ZM51.712,265.336C55.120000000000005,265.336,57.976,263.464,57.976,260.2C57.976,257.848,56.44,256.36,54.448,255.808L54.448,255.688C56.32,254.944,57.4,253.552,57.4,251.632C57.4,248.584,55.072,246.904,51.64,246.904C49.552,246.904,47.848,247.744,46.312,249.064L48.135999999999996,251.248C49.168,250.264,50.2,249.688,51.472,249.688C52.984,249.688,53.848,250.504,53.848,251.89600000000002C53.848,253.504,52.792,254.608,49.552,254.608L49.552,257.152C53.391999999999996,257.152,54.424,258.23199999999997,54.424,259.984C54.424,261.568,53.2,262.456,51.4,262.456C49.768,262.456,48.495999999999995,261.664,47.44,260.632L45.784,262.864C47.032,264.28,48.928,265.336,51.712,265.336Z" fill="#3D3D3D" fill-opacity="1"/></g></g></g></svg>